<svg width="58" height="58" viewBox="0 0 58 58" fill="none" xmlns="http://www.w3.org/2000/svg">
<g filter="url(#filter0_d_14_16)">
<path d="M4 10C4 4.47715 8.47715 0 14 0H44C49.5228 0 54 4.47715 54 10V40C54 45.5228 49.5228 50 44 50H14C8.47715 50 4 45.5228 4 40V10Z" fill="#8C01FA"/>
<path d="M14 0.5H44C49.2467 0.5 53.5 4.75329 53.5 10V40C53.5 45.2467 49.2467 49.5 44 49.5H14C8.75329 49.5 4.5 45.2467 4.5 40V10C4.5 4.75329 8.75329 0.5 14 0.5Z" stroke="url(#paint0_linear_14_16)"/>
</g>
<path d="M33.1469 20.5886C33.0817 19.7314 32.7757 19.0629 32.229 18.5829C31.6906 18.1029 30.8706 17.8628 29.7692 17.8628C29.0676 17.8628 28.4924 17.9528 28.0437 18.1329C27.6032 18.3043 27.2768 18.54 27.0647 18.84C26.8526 19.14 26.7424 19.4828 26.7343 19.8686C26.718 20.1857 26.771 20.4728 26.8934 20.73C27.0239 20.9786 27.2279 21.2057 27.5053 21.4114C27.7827 21.6086 28.1375 21.7886 28.5699 21.9514C29.0023 22.1143 29.5163 22.26 30.1119 22.3886L32.1678 22.8514C33.5548 23.16 34.7419 23.5671 35.729 24.0728C36.7163 24.5785 37.5239 25.1743 38.1521 25.86C38.7803 26.5371 39.2412 27.3 39.535 28.1485C39.8368 28.9971 39.9919 29.9229 40 30.9256C39.9919 32.6571 39.5799 34.1228 38.764 35.3229C37.9481 36.5228 36.7815 37.4357 35.264 38.0614C33.7547 38.6871 31.9394 39 29.8182 39C27.6399 39 25.7389 38.6614 24.1154 37.9842C22.5 37.3071 21.2436 36.2657 20.3462 34.8599C19.4569 33.4457 19.0082 31.6371 19 29.4342H25.4615C25.5023 30.24 25.6941 30.9171 26.0367 31.4657C26.3794 32.0143 26.8607 32.4299 27.4808 32.7128C28.109 32.9957 28.8555 33.1371 29.7203 33.1371C30.4464 33.1371 31.0542 33.0428 31.5437 32.8543C32.0332 32.6656 32.4044 32.4042 32.6574 32.07C32.9103 31.7356 33.0408 31.3542 33.049 30.9256C33.0408 30.5229 32.9143 30.1714 32.6695 29.8714C32.4329 29.5628 32.0414 29.2885 31.4948 29.0486C30.9481 28.8 30.2098 28.5685 29.2797 28.3543L26.7832 27.7886C24.5641 27.2828 22.8141 26.4385 21.5332 25.2557C20.2605 24.0643 19.6282 22.44 19.6364 20.3828C19.6282 18.7114 20.0525 17.25 20.9091 15.9986C21.7739 14.7386 22.9691 13.7571 24.4948 13.0543C26.0286 12.3514 27.7867 12 29.7692 12C31.7926 12 33.5426 12.3557 35.0192 13.0671C36.496 13.7786 37.634 14.7814 38.4335 16.0757C39.2412 17.3614 39.6492 18.8657 39.6574 20.5886H33.1469Z" fill="white"/>
<defs>
<filter id="filter0_d_14_16" x="0" y="0" width="58" height="58" filterUnits="userSpaceOnUse" color-interpolation-filters="sRGB">
<feFlood flood-opacity="0" result="BackgroundImageFix"/>
<feColorMatrix in="SourceAlpha" type="matrix" values="0 0 0 0 0 0 0 0 0 0 0 0 0 0 0 0 0 0 127 0" result="hardAlpha"/>
<feOffset dy="4"/>
<feGaussianBlur stdDeviation="2"/>
<feComposite in2="hardAlpha" operator="out"/>
<feColorMatrix type="matrix" values="0 0 0 0 0 0 0 0 0 0 0 0 0 0 0 0 0 0 0.25 0"/>
<feBlend mode="normal" in2="BackgroundImageFix" result="effect1_dropShadow_14_16"/>
<feBlend mode="normal" in="SourceGraphic" in2="effect1_dropShadow_14_16" result="shape"/>
</filter>
<linearGradient id="paint0_linear_14_16" x1="29" y1="0" x2="29" y2="50" gradientUnits="userSpaceOnUse">
<stop stop-color="white"/>
<stop offset="1" stop-color="#999999"/>
</linearGradient>
</defs>
</svg>
